<svg xmlns="http://www.w3.org/2000/svg" id="Layer_1" viewBox="100 0 60 50" x="0px" y="0px" 
    xmlns:xml="http://www.w3.org/XML/1998/namespace" xml:space="preserve" enable-background="new 0 0 330 60" 
    xmlns:xlink="http://www.w3.org/1999/xlink" version="1.1">
    <g>
        <g>
            <g>
                <g>
                    <path stroke="black" fill="white" d="M 120.8 4 c -6.8 2.2 -13.9 8.4 -13 15.4 c 0 8 8 14.2 15.9 16.8 c -6.2 -7.1 -10.6 -15.9 -6.7 -25.6 C 118.8 6.5 120.8 4 120.8 4 Z" />
                </g>
                <g>
                    <path stroke="black" fill="white" d="M 106.1 21.3 c -2.7 7 -0.1 15.8 5.2 19.4 c 7.1 5.3 16.8 2.7 23.9 -3.5 c -9.7 1.8 -20.3 0 -25.7 -8.7 C 107.1 24.4 106.1 21.3 106.1 21.3 Z" />
                </g>
                <g>
                    <path stroke="black" fill="white" d="M 112.5 43.4 c 4.9 6 13.8 8.5 20.9 5.8 c 4.8 -1.9 8.4 -7.1 9.2 -13 c 0.5 -3 -0.1 -5.5 -0.5 -8.5 c -3.5 9.7 -11.4 16.5 -21.6 17 C 115.8 44.4 112.5 43.4 112.5 43.4 Z" />
                </g>
                <g>
                    <path stroke="black" fill="white" d="M 136.4 49.6 c 7.7 -1.9 15.6 -9 15.6 -16.9 c 0 -5.3 -5.5 -14.8 -15.9 -16.8 c 7.1 7.1 11.5 18.6 5.4 27.5 C 138.8 47.3 136.4 49.6 136.4 49.6 Z" />
                </g>
                <g>
                    <path stroke="black" fill="white" d="M 153.5 30.5 c 1.1 -7.6 -0.7 -17.3 -7.7 -20.9 c -4.4 -2.7 -17.3 -0.1 -21.2 7.1 c 8.9 -3.5 20.3 -2.7 25.7 6.8 C 152.6 27.4 153.5 30.5 153.5 30.5 Z" />
                </g>
                <g>
                    <path stroke="black" fill="white" d="M 144.3 7.1 c -5.6 -4.5 -14.4 -7.1 -20.6 -2.7 c -7.1 4.4 -8.8 14.1 -4.4 22.1 c 0.9 -9.7 8 -17.7 17.4 -19.4 C 141.1 6.6 144.3 7.1 144.3 7.1 Z" />
                </g>
            </g>
        </g>
    </g>
</svg>
